<svg id="katman_1" data-name="katman 1" xmlns="http://www.w3.org/2000/svg" viewBox="0 0 32 32"><defs><style>.cls-1{fill:#e3edf7;}.cls-2{font-size:3.82px;}.cls-2,.cls-3{fill:#31344b;font-family:FuturaPT-HeavyOblique, Futura PT;font-weight:800;font-style:oblique;}.cls-3{font-size:14.7px;}.cls-4{letter-spacing:0.02em;}</style></defs><circle class="cls-1" cx="16" cy="16" r="16"/><text class="cls-2" transform="translate(8.02 7.98) rotate(-38.76)">Y</text><text class="cls-2" transform="translate(9.89 6.51) rotate(-28.33)">T</text><text class="cls-2" transform="translate(11.4 5.72) rotate(-21.87)"> </text><text class="cls-2" transform="translate(12.16 5.41) rotate(-17.63)"> </text><text class="cls-2" transform="translate(12.92 5.11) rotate(-9.58)">Y</text><text class="cls-2" transform="translate(15.3 4.74) rotate(0.93)">T</text><text class="cls-2" transform="translate(16.99 4.79) rotate(7.24)"> </text><text class="cls-2" transform="translate(17.83 4.89) rotate(11.56)"> </text><text class="cls-2" transform="matrix(0.94, 0.34, -0.34, 0.94, 18.63, 4.99)">Y</text><text class="cls-2" transform="translate(20.87 5.82) rotate(30.07)">T</text><text class="cls-2" transform="translate(22.32 6.68) rotate(36.45)"> </text><text class="cls-2" transform="matrix(0.76, 0.65, -0.65, 0.76, 23, 7.18)"> </text><text class="cls-2" transform="matrix(0.66, 0.75, -0.75, 0.66, 23.67, 7.68)">Y</text><text class="cls-2" transform="translate(25.21 9.47) rotate(59.06)">T</text><text class="cls-2" transform="translate(26.06 10.93) rotate(65.5)"> </text><text class="cls-2" transform="matrix(0.34, 0.94, -0.94, 0.34, 26.42, 11.71)"> </text><text class="cls-2" transform="matrix(0.21, 0.98, -0.98, 0.21, 26.75, 12.45)">Y</text><text class="cls-2" transform="translate(27.22 14.8) rotate(88.37)">T</text><text class="cls-2" transform="translate(27.25 16.49) rotate(94.72)"> </text><text class="cls-2" transform="translate(27.18 17.33) rotate(98.96)"> </text><text class="cls-2" transform="matrix(-0.29, 0.96, -0.96, -0.29, 27.12, 18.12)">Y</text><text class="cls-2" transform="translate(26.39 20.4) rotate(117.47)">T</text><text class="cls-2" transform="matrix(-0.56, 0.83, -0.83, -0.56, 25.6, 21.89)"> </text><text class="cls-2" transform="matrix(-0.62, 0.79, -0.79, -0.62, 25.13, 22.59)"> </text><text class="cls-2" transform="translate(24.66 23.29) rotate(136.2)">Y</text><text class="cls-2" transform="translate(22.93 24.91) rotate(146.56)">T</text><text class="cls-2" transform="matrix(-0.89, 0.45, -0.45, -0.89, 21.5, 25.82)"> </text><text class="cls-2" transform="translate(20.76 26.21) rotate(157.24)"> </text><text class="cls-2" transform="matrix(-0.97, 0.25, -0.25, -0.97, 20.01, 26.58)">Y</text><text class="cls-2" transform="matrix(-1, 0.07, -0.07, -1, 17.71, 27.16)">T</text><text class="cls-2" transform="translate(16.01 27.26) rotate(-177.82)"> </text><text class="cls-2" transform="matrix(-0.99, -0.11, 0.11, -0.99, 15.19, 27.23)"> </text><text class="cls-2" transform="matrix(-0.97, -0.25, 0.25, -0.97, 14.36, 27.2)">Y</text><text class="cls-2" transform="translate(12.06 26.58) rotate(-155.06)">T</text><text class="cls-2" transform="translate(10.55 25.85) rotate(-148.71)"> </text><text class="cls-2" transform="matrix(-0.77, -0.63, 0.63, -0.77, 9.8, 25.47)">Y</text><text class="cls-2" transform="translate(7.97 23.93) rotate(-130.22)">T</text><text class="cls-2" transform="matrix(-0.56, -0.83, 0.83, -0.56, 6.9, 22.63)"> </text><text class="cls-2" transform="matrix(-0.44, -0.9, 0.9, -0.44, 6.4, 21.99)">Y</text><text class="cls-2" transform="translate(5.38 19.83) rotate(-105.33)">T</text><text class="cls-2" transform="translate(4.96 18.21) rotate(-98.96)"> </text><text class="cls-2" transform="matrix(-0.02, -1, 1, -0.02, 4.77, 17.41)">Y</text><text class="cls-2" transform="translate(4.76 15.01) rotate(-80.59)">T</text><text class="cls-2" transform="translate(5.06 13.35) rotate(-74.15)"> </text><text class="cls-2" transform="translate(5.28 12.55) rotate(-69.89)"> </text><text class="cls-2" transform="matrix(0.47, -0.88, 0.88, 0.47, 5.51, 11.76)">Y</text><text class="cls-2" transform="translate(6.66 9.66) rotate(-51.32)">T</text><text class="cls-3" transform="translate(7.31 21.21)"><tspan class="cls-4">Y</tspan><tspan x="9.58" y="0">T</tspan></text></svg>